<mxfile host="app.diagrams.net" modified="2023-09-24T21:20:35.941Z" agent="Mozilla/5.0 (Windows NT 10.0; Win64; x64) AppleWebKit/537.36 (KHTML, like Gecko) Chrome/117.0.0.0 Safari/537.36" etag="ONSy_yttZBHkvFmq33t8" version="21.8.0" type="device">
  <diagram id="lBYOBI3ku166gWeQ2vu-" name="Página-3">
    <mxGraphModel dx="2145" dy="659" grid="1" gridSize="10" guides="1" tooltips="1" connect="1" arrows="1" fold="1" page="1" pageScale="1" pageWidth="827" pageHeight="1169" math="0" shadow="0">
      <root>
        <mxCell id="0" />
        <mxCell id="1" parent="0" />
        <mxCell id="rYNILuXu-vlR-Zm8Mr-W-1" value="9. Se debe modelar la información correspondiente para la gestión de personal y&lt;br&gt;proyectos de una empresa de software con sede en la ciudad de La Plata. &lt;br&gt;&lt;br&gt;La empresa se encuentra dividida en diferentes áreas, de cada una de ellas se conoce: nombre del área (único), un código de área único y una descripción de las funciones de la misma. &lt;br&gt;&lt;br&gt;Los empleados de la empresa corresponden a un área de la empresa pudiendo prestar&lt;br&gt;servicios en uno o varios proyectos. &lt;br&gt;&lt;br&gt;De cada empleado se conoce: DNI, CUIL, fecha de nacimiento, cantidad de hijos, fecha de ingreso, una descripción de lo/s título/s si posee, dirección detallada, uno o varios teléfonos de contacto y el área en la que se desempeña.&lt;br&gt;&lt;br&gt;Cada área cuenta con un gerente encargado de la misma que forma parte de los&lt;br&gt;empleados de la empresa. &lt;br&gt;Todos los empleados pueden rotar dentro de las áreas de la empresa, se debe poder determinar todos los empleados que trabajaron en una determinada área en orden cronológico, del mismo modo todos los gerentes que tuvo un&lt;br&gt;área. &lt;br&gt;&lt;br&gt;La empresa además lleva adelante varios proyectos, de cada proyecto se conoce:&lt;br&gt;nombre único, fecha de comienzo, fecha estimada de finalización, costo estimado, tipo de&lt;br&gt;proyecto y los empleados que intervienen en su realización. &lt;br&gt;&lt;br&gt;Cuando un empleado es asignado a un proyecto se debe indicar fecha inicio, fecha de fin opcional, cargo que desempeñará dentro del proyecto, cantidad de horas dedicadas. De los tipos de proyecto se conoce: nombre único del tipo y una descripción asociada. Además se tiene estandarizado los posibles cargos a asumir dentro de un proyecto, de cada cargo se&lt;br&gt;almacena: código único, nombre y una descripción del mismo.&lt;br&gt;&lt;br&gt;Tenga en cuenta que podría consultarse cuántos empleados se desempeñan con cargo&lt;br&gt;programador, o bien cuántos proyectos de tipo x finalizaron este año" style="text;whiteSpace=wrap;html=1;" vertex="1" parent="1">
          <mxGeometry x="190" y="20" width="510" height="470" as="geometry" />
        </mxCell>
        <mxCell id="rYNILuXu-vlR-Zm8Mr-W-53" value="Empleados" style="rounded=0;whiteSpace=wrap;html=1;" vertex="1" parent="1">
          <mxGeometry x="-77" y="830" width="120" height="70" as="geometry" />
        </mxCell>
        <mxCell id="rYNILuXu-vlR-Zm8Mr-W-58" value="" style="endArrow=none;html=1;rounded=0;entryX=0;entryY=0.25;entryDx=0;entryDy=0;exitX=0.875;exitY=0.283;exitDx=0;exitDy=0;exitPerimeter=0;" edge="1" source="rYNILuXu-vlR-Zm8Mr-W-59" target="rYNILuXu-vlR-Zm8Mr-W-53" parent="1">
          <mxGeometry width="50" height="50" relative="1" as="geometry">
            <mxPoint x="-207" y="874" as="sourcePoint" />
            <mxPoint x="-137" y="874" as="targetPoint" />
          </mxGeometry>
        </mxCell>
        <mxCell id="rYNILuXu-vlR-Zm8Mr-W-59" value="" style="ellipse;whiteSpace=wrap;html=1;aspect=fixed;rotation=30;fillColor=#0A0A0A;" vertex="1" parent="1">
          <mxGeometry x="-157" y="830" width="20" height="20" as="geometry" />
        </mxCell>
        <mxCell id="rYNILuXu-vlR-Zm8Mr-W-60" value="" style="endArrow=none;html=1;rounded=0;entryX=0;entryY=0.5;entryDx=0;entryDy=0;exitX=1;exitY=0.5;exitDx=0;exitDy=0;" edge="1" source="rYNILuXu-vlR-Zm8Mr-W-61" target="rYNILuXu-vlR-Zm8Mr-W-53" parent="1">
          <mxGeometry width="50" height="50" relative="1" as="geometry">
            <mxPoint x="-187" y="894" as="sourcePoint" />
            <mxPoint x="-117" y="894" as="targetPoint" />
          </mxGeometry>
        </mxCell>
        <mxCell id="rYNILuXu-vlR-Zm8Mr-W-61" value="" style="ellipse;whiteSpace=wrap;html=1;aspect=fixed;fillColor=#0F0F0F;" vertex="1" parent="1">
          <mxGeometry x="-167" y="865" width="20" height="20" as="geometry" />
        </mxCell>
        <mxCell id="rYNILuXu-vlR-Zm8Mr-W-64" value="DNI" style="text;html=1;align=center;verticalAlign=middle;resizable=0;points=[];autosize=1;strokeColor=none;fillColor=none;" vertex="1" parent="1">
          <mxGeometry x="-212" y="820" width="40" height="30" as="geometry" />
        </mxCell>
        <mxCell id="rYNILuXu-vlR-Zm8Mr-W-65" value="CUIL" style="text;html=1;align=center;verticalAlign=middle;resizable=0;points=[];autosize=1;strokeColor=none;fillColor=none;" vertex="1" parent="1">
          <mxGeometry x="-222" y="865" width="50" height="30" as="geometry" />
        </mxCell>
        <mxCell id="rYNILuXu-vlR-Zm8Mr-W-69" value="" style="endArrow=none;html=1;rounded=0;entryX=0;entryY=1;entryDx=0;entryDy=0;exitX=1;exitY=0.5;exitDx=0;exitDy=0;" edge="1" source="rYNILuXu-vlR-Zm8Mr-W-76" target="rYNILuXu-vlR-Zm8Mr-W-53" parent="1">
          <mxGeometry width="50" height="50" relative="1" as="geometry">
            <mxPoint x="-177" y="920" as="sourcePoint" />
            <mxPoint x="-82" y="970" as="targetPoint" />
          </mxGeometry>
        </mxCell>
        <mxCell id="rYNILuXu-vlR-Zm8Mr-W-70" value="" style="endArrow=none;html=1;rounded=0;entryX=0.25;entryY=1;entryDx=0;entryDy=0;exitX=1;exitY=0;exitDx=0;exitDy=0;" edge="1" source="rYNILuXu-vlR-Zm8Mr-W-71" target="rYNILuXu-vlR-Zm8Mr-W-53" parent="1">
          <mxGeometry width="50" height="50" relative="1" as="geometry">
            <mxPoint x="-107" y="1010" as="sourcePoint" />
            <mxPoint x="-27" y="953" as="targetPoint" />
          </mxGeometry>
        </mxCell>
        <mxCell id="rYNILuXu-vlR-Zm8Mr-W-71" value="" style="ellipse;whiteSpace=wrap;html=1;aspect=fixed;rotation=-15;" vertex="1" parent="1">
          <mxGeometry x="-172" y="964" width="20" height="20" as="geometry" />
        </mxCell>
        <mxCell id="rYNILuXu-vlR-Zm8Mr-W-72" value="Telefono 1,N" style="text;html=1;align=center;verticalAlign=middle;resizable=0;points=[];autosize=1;strokeColor=none;fillColor=none;" vertex="1" parent="1">
          <mxGeometry x="-257" y="964" width="90" height="30" as="geometry" />
        </mxCell>
        <mxCell id="rYNILuXu-vlR-Zm8Mr-W-73" value="" style="endArrow=none;html=1;rounded=0;exitX=0.5;exitY=0;exitDx=0;exitDy=0;entryX=0;entryY=0;entryDx=0;entryDy=0;" edge="1" source="rYNILuXu-vlR-Zm8Mr-W-74" target="rYNILuXu-vlR-Zm8Mr-W-53" parent="1">
          <mxGeometry width="50" height="50" relative="1" as="geometry">
            <mxPoint x="-37" y="764" as="sourcePoint" />
            <mxPoint x="-32" y="810" as="targetPoint" />
          </mxGeometry>
        </mxCell>
        <mxCell id="rYNILuXu-vlR-Zm8Mr-W-74" value="" style="ellipse;whiteSpace=wrap;html=1;aspect=fixed;rotation=135;" vertex="1" parent="1">
          <mxGeometry x="-137" y="790" width="20" height="20" as="geometry" />
        </mxCell>
        <mxCell id="rYNILuXu-vlR-Zm8Mr-W-75" value="Cantidad hijos" style="text;html=1;align=center;verticalAlign=middle;resizable=0;points=[];autosize=1;strokeColor=none;fillColor=none;" vertex="1" parent="1">
          <mxGeometry x="-237" y="780" width="100" height="30" as="geometry" />
        </mxCell>
        <mxCell id="rYNILuXu-vlR-Zm8Mr-W-76" value="" style="ellipse;whiteSpace=wrap;html=1;aspect=fixed;rotation=-15;" vertex="1" parent="1">
          <mxGeometry x="-190" y="914" width="20" height="20" as="geometry" />
        </mxCell>
        <mxCell id="rYNILuXu-vlR-Zm8Mr-W-77" value="Fecha de nacimiento" style="text;html=1;align=center;verticalAlign=middle;resizable=0;points=[];autosize=1;strokeColor=none;fillColor=none;" vertex="1" parent="1">
          <mxGeometry x="-320" y="914" width="130" height="30" as="geometry" />
        </mxCell>
        <mxCell id="rYNILuXu-vlR-Zm8Mr-W-132" value="" style="endArrow=none;html=1;rounded=0;exitX=0.7;exitY=0;exitDx=0;exitDy=0;entryX=0.5;entryY=1;entryDx=0;entryDy=0;exitPerimeter=0;" edge="1" parent="1" source="rYNILuXu-vlR-Zm8Mr-W-133" target="rYNILuXu-vlR-Zm8Mr-W-53">
          <mxGeometry width="50" height="50" relative="1" as="geometry">
            <mxPoint x="-39.411809548974816" y="940.3407417371093" as="sourcePoint" />
            <mxPoint x="-27" y="900" as="targetPoint" />
          </mxGeometry>
        </mxCell>
        <mxCell id="rYNILuXu-vlR-Zm8Mr-W-133" value="Direccion" style="ellipse;whiteSpace=wrap;html=1;" vertex="1" parent="1">
          <mxGeometry x="-77" y="948" width="60" height="30" as="geometry" />
        </mxCell>
        <mxCell id="rYNILuXu-vlR-Zm8Mr-W-134" value="" style="endArrow=none;html=1;rounded=0;exitX=1;exitY=0.5;exitDx=0;exitDy=0;entryX=0;entryY=1;entryDx=0;entryDy=0;" edge="1" parent="1" source="rYNILuXu-vlR-Zm8Mr-W-137" target="rYNILuXu-vlR-Zm8Mr-W-133">
          <mxGeometry width="50" height="50" relative="1" as="geometry">
            <mxPoint x="-88.3397459621558" y="983.0000000000002" as="sourcePoint" />
            <mxPoint x="-77" y="970" as="targetPoint" />
          </mxGeometry>
        </mxCell>
        <mxCell id="rYNILuXu-vlR-Zm8Mr-W-135" value="" style="ellipse;whiteSpace=wrap;html=1;aspect=fixed;rotation=15;" vertex="1" parent="1">
          <mxGeometry x="-87" y="1010" width="20" height="20" as="geometry" />
        </mxCell>
        <mxCell id="rYNILuXu-vlR-Zm8Mr-W-136" value="" style="endArrow=none;html=1;rounded=0;entryX=0.333;entryY=1.067;entryDx=0;entryDy=0;exitX=0.5;exitY=0;exitDx=0;exitDy=0;entryPerimeter=0;" edge="1" parent="1" source="rYNILuXu-vlR-Zm8Mr-W-135" target="rYNILuXu-vlR-Zm8Mr-W-133">
          <mxGeometry width="50" height="50" relative="1" as="geometry">
            <mxPoint x="-62.00000000000023" y="999.3397459621558" as="sourcePoint" />
            <mxPoint x="-32" y="980" as="targetPoint" />
          </mxGeometry>
        </mxCell>
        <mxCell id="rYNILuXu-vlR-Zm8Mr-W-137" value="" style="ellipse;whiteSpace=wrap;html=1;aspect=fixed;rotation=-15;" vertex="1" parent="1">
          <mxGeometry x="-107" y="978" width="20" height="20" as="geometry" />
        </mxCell>
        <mxCell id="rYNILuXu-vlR-Zm8Mr-W-138" value="" style="endArrow=none;html=1;rounded=0;entryX=0.5;entryY=1;entryDx=0;entryDy=0;exitX=1;exitY=0;exitDx=0;exitDy=0;" edge="1" parent="1" source="rYNILuXu-vlR-Zm8Mr-W-139" target="rYNILuXu-vlR-Zm8Mr-W-133">
          <mxGeometry width="50" height="50" relative="1" as="geometry">
            <mxPoint x="268" y="1201" as="sourcePoint" />
            <mxPoint x="348" y="1144" as="targetPoint" />
          </mxGeometry>
        </mxCell>
        <mxCell id="rYNILuXu-vlR-Zm8Mr-W-139" value="" style="ellipse;whiteSpace=wrap;html=1;aspect=fixed;rotation=-150;direction=south;" vertex="1" parent="1">
          <mxGeometry x="-41.370000000000005" y="999.0899999999999" width="19.08" height="19.08" as="geometry" />
        </mxCell>
        <mxCell id="rYNILuXu-vlR-Zm8Mr-W-140" value="Calle 1,1" style="text;html=1;align=center;verticalAlign=middle;resizable=0;points=[];autosize=1;strokeColor=none;fillColor=none;" vertex="1" parent="1">
          <mxGeometry x="-117" y="1030" width="70" height="30" as="geometry" />
        </mxCell>
        <mxCell id="rYNILuXu-vlR-Zm8Mr-W-141" value="Nro 1,1" style="text;html=1;align=center;verticalAlign=middle;resizable=0;points=[];autosize=1;strokeColor=none;fillColor=none;" vertex="1" parent="1">
          <mxGeometry x="-157" y="994" width="60" height="30" as="geometry" />
        </mxCell>
        <mxCell id="rYNILuXu-vlR-Zm8Mr-W-142" value="Piso 0,1" style="text;html=1;align=center;verticalAlign=middle;resizable=0;points=[];autosize=1;strokeColor=none;fillColor=none;" vertex="1" parent="1">
          <mxGeometry x="-57" y="1018.17" width="70" height="30" as="geometry" />
        </mxCell>
        <mxCell id="rYNILuXu-vlR-Zm8Mr-W-143" value="" style="endArrow=none;html=1;rounded=0;entryX=1;entryY=1;entryDx=0;entryDy=0;exitX=0.5;exitY=0;exitDx=0;exitDy=0;" edge="1" parent="1" source="rYNILuXu-vlR-Zm8Mr-W-144" target="rYNILuXu-vlR-Zm8Mr-W-133">
          <mxGeometry width="50" height="50" relative="1" as="geometry">
            <mxPoint x="38" y="978" as="sourcePoint" />
            <mxPoint x="38" y="941" as="targetPoint" />
          </mxGeometry>
        </mxCell>
        <mxCell id="rYNILuXu-vlR-Zm8Mr-W-144" value="" style="ellipse;whiteSpace=wrap;html=1;aspect=fixed;rotation=-45;" vertex="1" parent="1">
          <mxGeometry x="-7" y="986" width="20" height="20" as="geometry" />
        </mxCell>
        <mxCell id="rYNILuXu-vlR-Zm8Mr-W-145" value="Dpto 0,1" style="text;html=1;align=center;verticalAlign=middle;resizable=0;points=[];autosize=1;strokeColor=none;fillColor=none;" vertex="1" parent="1">
          <mxGeometry x="-7" y="1000" width="70" height="30" as="geometry" />
        </mxCell>
        <mxCell id="rYNILuXu-vlR-Zm8Mr-W-154" value="Areas" style="rounded=0;whiteSpace=wrap;html=1;" vertex="1" parent="1">
          <mxGeometry x="310" y="830" width="120" height="70" as="geometry" />
        </mxCell>
        <mxCell id="rYNILuXu-vlR-Zm8Mr-W-155" value="Trabaja" style="rhombus;whiteSpace=wrap;html=1;" vertex="1" parent="1">
          <mxGeometry x="160" y="840" width="60" height="50" as="geometry" />
        </mxCell>
        <mxCell id="rYNILuXu-vlR-Zm8Mr-W-156" value="dirige" style="rhombus;whiteSpace=wrap;html=1;" vertex="1" parent="1">
          <mxGeometry x="160" y="928" width="60" height="50" as="geometry" />
        </mxCell>
        <mxCell id="rYNILuXu-vlR-Zm8Mr-W-157" value="" style="endArrow=none;html=1;rounded=0;exitX=0;exitY=0.5;exitDx=0;exitDy=0;entryX=1;entryY=0.75;entryDx=0;entryDy=0;" edge="1" parent="1" source="rYNILuXu-vlR-Zm8Mr-W-156" target="rYNILuXu-vlR-Zm8Mr-W-53">
          <mxGeometry width="50" height="50" relative="1" as="geometry">
            <mxPoint x="110" y="960" as="sourcePoint" />
            <mxPoint x="50" y="870" as="targetPoint" />
          </mxGeometry>
        </mxCell>
        <mxCell id="rYNILuXu-vlR-Zm8Mr-W-158" value="" style="endArrow=none;html=1;rounded=0;exitX=1;exitY=0.5;exitDx=0;exitDy=0;entryX=0;entryY=1;entryDx=0;entryDy=0;" edge="1" parent="1" source="rYNILuXu-vlR-Zm8Mr-W-156" target="rYNILuXu-vlR-Zm8Mr-W-154">
          <mxGeometry width="50" height="50" relative="1" as="geometry">
            <mxPoint x="230" y="990" as="sourcePoint" />
            <mxPoint x="280" y="940" as="targetPoint" />
          </mxGeometry>
        </mxCell>
        <mxCell id="rYNILuXu-vlR-Zm8Mr-W-159" value="" style="endArrow=none;html=1;rounded=0;exitX=1;exitY=0.5;exitDx=0;exitDy=0;entryX=0;entryY=0.5;entryDx=0;entryDy=0;" edge="1" parent="1" source="rYNILuXu-vlR-Zm8Mr-W-53" target="rYNILuXu-vlR-Zm8Mr-W-155">
          <mxGeometry width="50" height="50" relative="1" as="geometry">
            <mxPoint x="50" y="870" as="sourcePoint" />
            <mxPoint x="130" y="820" as="targetPoint" />
          </mxGeometry>
        </mxCell>
        <mxCell id="rYNILuXu-vlR-Zm8Mr-W-160" value="" style="endArrow=none;html=1;rounded=0;exitX=1;exitY=0.5;exitDx=0;exitDy=0;entryX=0;entryY=0.5;entryDx=0;entryDy=0;" edge="1" parent="1" source="rYNILuXu-vlR-Zm8Mr-W-155" target="rYNILuXu-vlR-Zm8Mr-W-154">
          <mxGeometry width="50" height="50" relative="1" as="geometry">
            <mxPoint x="250" y="900" as="sourcePoint" />
            <mxPoint x="300" y="850" as="targetPoint" />
          </mxGeometry>
        </mxCell>
        <mxCell id="rYNILuXu-vlR-Zm8Mr-W-161" value="Proyectos" style="rounded=0;whiteSpace=wrap;html=1;" vertex="1" parent="1">
          <mxGeometry x="349.99999999999955" y="1240" width="120" height="70" as="geometry" />
        </mxCell>
        <mxCell id="rYNILuXu-vlR-Zm8Mr-W-164" value="" style="endArrow=none;html=1;rounded=0;entryX=1;entryY=0.25;entryDx=0;entryDy=0;exitX=0.875;exitY=0.283;exitDx=0;exitDy=0;exitPerimeter=0;" edge="1" source="rYNILuXu-vlR-Zm8Mr-W-165" target="rYNILuXu-vlR-Zm8Mr-W-161" parent="1">
          <mxGeometry width="50" height="50" relative="1" as="geometry">
            <mxPoint x="529.9999999999995" y="1289" as="sourcePoint" />
            <mxPoint x="649.9999999999995" y="1262.5000000000002" as="targetPoint" />
          </mxGeometry>
        </mxCell>
        <mxCell id="rYNILuXu-vlR-Zm8Mr-W-165" value="" style="ellipse;whiteSpace=wrap;html=1;aspect=fixed;rotation=30;fillColor=#0A0A0A;" vertex="1" parent="1">
          <mxGeometry x="499.99999999999955" y="1245" width="20" height="20" as="geometry" />
        </mxCell>
        <mxCell id="rYNILuXu-vlR-Zm8Mr-W-167" value="" style="endArrow=none;html=1;rounded=0;entryX=1;entryY=0.5;entryDx=0;entryDy=0;exitX=1;exitY=1;exitDx=0;exitDy=0;" edge="1" parent="1" source="rYNILuXu-vlR-Zm8Mr-W-168" target="rYNILuXu-vlR-Zm8Mr-W-161">
          <mxGeometry width="50" height="50" relative="1" as="geometry">
            <mxPoint x="654.9999999999995" y="1265" as="sourcePoint" />
            <mxPoint x="649.9999999999995" y="1280.0000000000002" as="targetPoint" />
          </mxGeometry>
        </mxCell>
        <mxCell id="rYNILuXu-vlR-Zm8Mr-W-168" value="" style="ellipse;whiteSpace=wrap;html=1;aspect=fixed;rotation=-195;" vertex="1" parent="1">
          <mxGeometry x="529.9999999999995" y="1285" width="20" height="20" as="geometry" />
        </mxCell>
        <mxCell id="rYNILuXu-vlR-Zm8Mr-W-169" value="Fecha de inicio" style="text;html=1;align=center;verticalAlign=middle;resizable=0;points=[];autosize=1;strokeColor=none;fillColor=none;" vertex="1" parent="1">
          <mxGeometry x="549.9999999999995" y="1285" width="100" height="30" as="geometry" />
        </mxCell>
        <mxCell id="rYNILuXu-vlR-Zm8Mr-W-170" value="" style="endArrow=none;html=1;rounded=0;exitX=0.45;exitY=0;exitDx=0;exitDy=0;exitPerimeter=0;entryX=0.5;entryY=1;entryDx=0;entryDy=0;" edge="1" parent="1" source="rYNILuXu-vlR-Zm8Mr-W-161" target="rYNILuXu-vlR-Zm8Mr-W-171">
          <mxGeometry width="50" height="50" relative="1" as="geometry">
            <mxPoint x="375" y="1200" as="sourcePoint" />
            <mxPoint x="394" y="1170" as="targetPoint" />
          </mxGeometry>
        </mxCell>
        <mxCell id="rYNILuXu-vlR-Zm8Mr-W-171" value="tiene" style="rhombus;whiteSpace=wrap;html=1;" vertex="1" parent="1">
          <mxGeometry x="370" y="1024" width="60" height="50" as="geometry" />
        </mxCell>
        <mxCell id="rYNILuXu-vlR-Zm8Mr-W-172" value="" style="endArrow=none;html=1;rounded=0;exitX=0.5;exitY=0;exitDx=0;exitDy=0;entryX=0.699;entryY=1.016;entryDx=0;entryDy=0;entryPerimeter=0;" edge="1" parent="1" source="rYNILuXu-vlR-Zm8Mr-W-171" target="rYNILuXu-vlR-Zm8Mr-W-154">
          <mxGeometry width="50" height="50" relative="1" as="geometry">
            <mxPoint x="400" y="1030" as="sourcePoint" />
            <mxPoint x="450" y="980" as="targetPoint" />
          </mxGeometry>
        </mxCell>
        <mxCell id="rYNILuXu-vlR-Zm8Mr-W-173" value="Nombre unico" style="text;html=1;align=center;verticalAlign=middle;resizable=0;points=[];autosize=1;strokeColor=none;fillColor=none;" vertex="1" parent="1">
          <mxGeometry x="520" y="1240" width="100" height="30" as="geometry" />
        </mxCell>
        <mxCell id="rYNILuXu-vlR-Zm8Mr-W-175" value="" style="endArrow=none;html=1;rounded=0;entryX=1;entryY=0.75;entryDx=0;entryDy=0;exitX=1;exitY=1;exitDx=0;exitDy=0;" edge="1" parent="1" source="rYNILuXu-vlR-Zm8Mr-W-176" target="rYNILuXu-vlR-Zm8Mr-W-161">
          <mxGeometry width="50" height="50" relative="1" as="geometry">
            <mxPoint x="644.9999999999995" y="1310" as="sourcePoint" />
            <mxPoint x="649.9999999999995" y="1297.5000000000002" as="targetPoint" />
          </mxGeometry>
        </mxCell>
        <mxCell id="rYNILuXu-vlR-Zm8Mr-W-176" value="" style="ellipse;whiteSpace=wrap;html=1;aspect=fixed;rotation=-165;" vertex="1" parent="1">
          <mxGeometry x="499.99999999999955" y="1330" width="20" height="20" as="geometry" />
        </mxCell>
        <mxCell id="rYNILuXu-vlR-Zm8Mr-W-177" value="Fecha de finalización" style="text;html=1;align=center;verticalAlign=middle;resizable=0;points=[];autosize=1;strokeColor=none;fillColor=none;" vertex="1" parent="1">
          <mxGeometry x="519.9999999999995" y="1330" width="140" height="30" as="geometry" />
        </mxCell>
        <mxCell id="rYNILuXu-vlR-Zm8Mr-W-178" value="" style="endArrow=none;html=1;rounded=0;entryX=1;entryY=0;entryDx=0;entryDy=0;exitX=0;exitY=1;exitDx=0;exitDy=0;" edge="1" source="rYNILuXu-vlR-Zm8Mr-W-179" parent="1" target="rYNILuXu-vlR-Zm8Mr-W-161">
          <mxGeometry width="50" height="50" relative="1" as="geometry">
            <mxPoint x="490" y="1210" as="sourcePoint" />
            <mxPoint x="649.9999999999995" y="1245.0000000000002" as="targetPoint" />
          </mxGeometry>
        </mxCell>
        <mxCell id="rYNILuXu-vlR-Zm8Mr-W-179" value="" style="ellipse;whiteSpace=wrap;html=1;aspect=fixed;" vertex="1" parent="1">
          <mxGeometry x="480" y="1205" width="20" height="20" as="geometry" />
        </mxCell>
        <mxCell id="rYNILuXu-vlR-Zm8Mr-W-180" value="Costo" style="text;html=1;align=center;verticalAlign=middle;resizable=0;points=[];autosize=1;strokeColor=none;fillColor=none;" vertex="1" parent="1">
          <mxGeometry x="500" y="1195" width="50" height="30" as="geometry" />
        </mxCell>
        <mxCell id="rYNILuXu-vlR-Zm8Mr-W-182" value="Participa" style="rhombus;whiteSpace=wrap;html=1;" vertex="1" parent="1">
          <mxGeometry x="170" y="1119" width="60" height="50" as="geometry" />
        </mxCell>
        <mxCell id="rYNILuXu-vlR-Zm8Mr-W-183" value="" style="endArrow=none;html=1;rounded=0;entryX=0.5;entryY=1;entryDx=0;entryDy=0;exitX=0;exitY=0;exitDx=0;exitDy=0;" edge="1" parent="1" source="rYNILuXu-vlR-Zm8Mr-W-161" target="rYNILuXu-vlR-Zm8Mr-W-182">
          <mxGeometry width="50" height="50" relative="1" as="geometry">
            <mxPoint x="230" y="1270" as="sourcePoint" />
            <mxPoint x="280" y="1170" as="targetPoint" />
          </mxGeometry>
        </mxCell>
        <mxCell id="rYNILuXu-vlR-Zm8Mr-W-184" value="" style="endArrow=none;html=1;rounded=0;entryX=0;entryY=0.5;entryDx=0;entryDy=0;exitX=1;exitY=1;exitDx=0;exitDy=0;" edge="1" parent="1" source="rYNILuXu-vlR-Zm8Mr-W-53" target="rYNILuXu-vlR-Zm8Mr-W-182">
          <mxGeometry width="50" height="50" relative="1" as="geometry">
            <mxPoint x="110" y="1100" as="sourcePoint" />
            <mxPoint x="160" y="1050" as="targetPoint" />
          </mxGeometry>
        </mxCell>
        <mxCell id="rYNILuXu-vlR-Zm8Mr-W-185" value="" style="endArrow=none;html=1;rounded=0;exitX=0.5;exitY=0;exitDx=0;exitDy=0;entryX=0.5;entryY=0;entryDx=0;entryDy=0;" edge="1" source="rYNILuXu-vlR-Zm8Mr-W-186" parent="1" target="rYNILuXu-vlR-Zm8Mr-W-182">
          <mxGeometry width="50" height="50" relative="1" as="geometry">
            <mxPoint x="200" y="1075" as="sourcePoint" />
            <mxPoint x="205" y="1121" as="targetPoint" />
          </mxGeometry>
        </mxCell>
        <mxCell id="rYNILuXu-vlR-Zm8Mr-W-186" value="" style="ellipse;whiteSpace=wrap;html=1;aspect=fixed;" vertex="1" parent="1">
          <mxGeometry x="190" y="1085" width="20" height="20" as="geometry" />
        </mxCell>
        <mxCell id="rYNILuXu-vlR-Zm8Mr-W-187" value="Fecha inicio" style="text;html=1;align=center;verticalAlign=middle;resizable=0;points=[];autosize=1;strokeColor=none;fillColor=none;" vertex="1" parent="1">
          <mxGeometry x="155" y="1060" width="90" height="30" as="geometry" />
        </mxCell>
        <mxCell id="rYNILuXu-vlR-Zm8Mr-W-188" value="" style="endArrow=none;html=1;rounded=0;entryX=0;entryY=1;entryDx=0;entryDy=0;exitX=0.5;exitY=0;exitDx=0;exitDy=0;" edge="1" source="rYNILuXu-vlR-Zm8Mr-W-189" parent="1" target="rYNILuXu-vlR-Zm8Mr-W-182">
          <mxGeometry width="50" height="50" relative="1" as="geometry">
            <mxPoint x="80" y="1213" as="sourcePoint" />
            <mxPoint x="75" y="1150" as="targetPoint" />
          </mxGeometry>
        </mxCell>
        <mxCell id="rYNILuXu-vlR-Zm8Mr-W-189" value="" style="ellipse;whiteSpace=wrap;html=1;aspect=fixed;rotation=60;" vertex="1" parent="1">
          <mxGeometry x="140" y="1165" width="20" height="20" as="geometry" />
        </mxCell>
        <mxCell id="rYNILuXu-vlR-Zm8Mr-W-190" value="Fecha fin 0,1" style="text;html=1;align=center;verticalAlign=middle;resizable=0;points=[];autosize=1;strokeColor=none;fillColor=none;" vertex="1" parent="1">
          <mxGeometry x="50" y="1160" width="90" height="30" as="geometry" />
        </mxCell>
        <mxCell id="rYNILuXu-vlR-Zm8Mr-W-191" value="" style="endArrow=none;html=1;rounded=0;entryX=0.5;entryY=1;entryDx=0;entryDy=0;" edge="1" parent="1" source="rYNILuXu-vlR-Zm8Mr-W-192" target="rYNILuXu-vlR-Zm8Mr-W-182">
          <mxGeometry width="50" height="50" relative="1" as="geometry">
            <mxPoint x="200" y="1300" as="sourcePoint" />
            <mxPoint x="200" y="1220" as="targetPoint" />
          </mxGeometry>
        </mxCell>
        <mxCell id="rYNILuXu-vlR-Zm8Mr-W-192" value="Cargos" style="rounded=0;whiteSpace=wrap;html=1;" vertex="1" parent="1">
          <mxGeometry x="139.99999999999955" y="1395" width="120" height="70" as="geometry" />
        </mxCell>
        <mxCell id="rYNILuXu-vlR-Zm8Mr-W-193" value="" style="endArrow=none;html=1;rounded=0;entryX=0.25;entryY=0;entryDx=0;entryDy=0;exitX=1;exitY=1;exitDx=0;exitDy=0;" edge="1" source="rYNILuXu-vlR-Zm8Mr-W-194" target="rYNILuXu-vlR-Zm8Mr-W-192" parent="1">
          <mxGeometry width="50" height="50" relative="1" as="geometry">
            <mxPoint x="249.99999999999955" y="1305" as="sourcePoint" />
            <mxPoint x="199.99999999999955" y="1365" as="targetPoint" />
          </mxGeometry>
        </mxCell>
        <mxCell id="rYNILuXu-vlR-Zm8Mr-W-194" value="" style="ellipse;whiteSpace=wrap;html=1;aspect=fixed;rotation=-15;" vertex="1" parent="1">
          <mxGeometry x="92.99999999999955" y="1345" width="20" height="20" as="geometry" />
        </mxCell>
        <mxCell id="rYNILuXu-vlR-Zm8Mr-W-195" value="" style="endArrow=none;html=1;rounded=0;entryX=0;entryY=0.25;entryDx=0;entryDy=0;exitX=0.875;exitY=0.283;exitDx=0;exitDy=0;exitPerimeter=0;" edge="1" source="rYNILuXu-vlR-Zm8Mr-W-196" target="rYNILuXu-vlR-Zm8Mr-W-192" parent="1">
          <mxGeometry width="50" height="50" relative="1" as="geometry">
            <mxPoint x="29.999999999999545" y="1439" as="sourcePoint" />
            <mxPoint x="99.99999999999955" y="1439" as="targetPoint" />
          </mxGeometry>
        </mxCell>
        <mxCell id="rYNILuXu-vlR-Zm8Mr-W-196" value="" style="ellipse;whiteSpace=wrap;html=1;aspect=fixed;rotation=30;fillColor=#0A0A0A;" vertex="1" parent="1">
          <mxGeometry x="79.99999999999955" y="1395" width="20" height="20" as="geometry" />
        </mxCell>
        <mxCell id="rYNILuXu-vlR-Zm8Mr-W-197" value="Desc" style="text;html=1;align=center;verticalAlign=middle;resizable=0;points=[];autosize=1;strokeColor=none;fillColor=none;" vertex="1" parent="1">
          <mxGeometry x="42.999999999999545" y="1335" width="50" height="30" as="geometry" />
        </mxCell>
        <mxCell id="rYNILuXu-vlR-Zm8Mr-W-198" value="" style="endArrow=none;html=1;rounded=0;exitX=0.5;exitY=0;exitDx=0;exitDy=0;entryX=1;entryY=0.5;entryDx=0;entryDy=0;" edge="1" source="rYNILuXu-vlR-Zm8Mr-W-199" parent="1" target="rYNILuXu-vlR-Zm8Mr-W-182">
          <mxGeometry width="50" height="50" relative="1" as="geometry">
            <mxPoint x="300" y="1123" as="sourcePoint" />
            <mxPoint x="305" y="1169" as="targetPoint" />
          </mxGeometry>
        </mxCell>
        <mxCell id="rYNILuXu-vlR-Zm8Mr-W-199" value="" style="ellipse;whiteSpace=wrap;html=1;aspect=fixed;rotation=-90;" vertex="1" parent="1">
          <mxGeometry x="250" y="1126" width="20" height="20" as="geometry" />
        </mxCell>
        <mxCell id="rYNILuXu-vlR-Zm8Mr-W-200" value="Cant horas" style="text;html=1;align=center;verticalAlign=middle;resizable=0;points=[];autosize=1;strokeColor=none;fillColor=none;" vertex="1" parent="1">
          <mxGeometry x="270" y="1121" width="80" height="30" as="geometry" />
        </mxCell>
        <mxCell id="rYNILuXu-vlR-Zm8Mr-W-202" value="tiene2" style="rhombus;whiteSpace=wrap;html=1;" vertex="1" parent="1">
          <mxGeometry x="384" y="1400" width="60" height="50" as="geometry" />
        </mxCell>
        <mxCell id="rYNILuXu-vlR-Zm8Mr-W-203" value="" style="endArrow=none;html=1;rounded=0;entryX=0.5;entryY=1;entryDx=0;entryDy=0;exitX=0.5;exitY=0;exitDx=0;exitDy=0;" edge="1" parent="1" source="rYNILuXu-vlR-Zm8Mr-W-202" target="rYNILuXu-vlR-Zm8Mr-W-161">
          <mxGeometry width="50" height="50" relative="1" as="geometry">
            <mxPoint x="400" y="1380" as="sourcePoint" />
            <mxPoint x="450" y="1330" as="targetPoint" />
          </mxGeometry>
        </mxCell>
        <mxCell id="rYNILuXu-vlR-Zm8Mr-W-204" value="" style="endArrow=none;html=1;rounded=0;entryX=0.5;entryY=1;entryDx=0;entryDy=0;" edge="1" parent="1" source="rYNILuXu-vlR-Zm8Mr-W-205" target="rYNILuXu-vlR-Zm8Mr-W-202">
          <mxGeometry width="50" height="50" relative="1" as="geometry">
            <mxPoint x="414" y="1530" as="sourcePoint" />
            <mxPoint x="440" y="1540" as="targetPoint" />
          </mxGeometry>
        </mxCell>
        <mxCell id="rYNILuXu-vlR-Zm8Mr-W-205" value="Tipos" style="rounded=0;whiteSpace=wrap;html=1;" vertex="1" parent="1">
          <mxGeometry x="353.99999999999955" y="1545" width="120" height="70" as="geometry" />
        </mxCell>
        <mxCell id="rYNILuXu-vlR-Zm8Mr-W-206" value="" style="endArrow=none;html=1;rounded=0;entryX=0.25;entryY=0;entryDx=0;entryDy=0;exitX=1;exitY=1;exitDx=0;exitDy=0;" edge="1" source="rYNILuXu-vlR-Zm8Mr-W-207" target="rYNILuXu-vlR-Zm8Mr-W-205" parent="1">
          <mxGeometry width="50" height="50" relative="1" as="geometry">
            <mxPoint x="459.99999999999955" y="1455" as="sourcePoint" />
            <mxPoint x="409.99999999999955" y="1515" as="targetPoint" />
          </mxGeometry>
        </mxCell>
        <mxCell id="rYNILuXu-vlR-Zm8Mr-W-207" value="" style="ellipse;whiteSpace=wrap;html=1;aspect=fixed;rotation=15;" vertex="1" parent="1">
          <mxGeometry x="349.99999999999955" y="1495" width="20" height="20" as="geometry" />
        </mxCell>
        <mxCell id="rYNILuXu-vlR-Zm8Mr-W-208" value="" style="endArrow=none;html=1;rounded=0;entryX=0;entryY=0.25;entryDx=0;entryDy=0;exitX=0.875;exitY=0.283;exitDx=0;exitDy=0;exitPerimeter=0;" edge="1" source="rYNILuXu-vlR-Zm8Mr-W-209" target="rYNILuXu-vlR-Zm8Mr-W-205" parent="1">
          <mxGeometry width="50" height="50" relative="1" as="geometry">
            <mxPoint x="239.99999999999955" y="1589" as="sourcePoint" />
            <mxPoint x="309.99999999999955" y="1589" as="targetPoint" />
          </mxGeometry>
        </mxCell>
        <mxCell id="rYNILuXu-vlR-Zm8Mr-W-209" value="" style="ellipse;whiteSpace=wrap;html=1;aspect=fixed;rotation=30;fillColor=#0A0A0A;" vertex="1" parent="1">
          <mxGeometry x="289.99999999999955" y="1545" width="20" height="20" as="geometry" />
        </mxCell>
        <mxCell id="rYNILuXu-vlR-Zm8Mr-W-210" value="Desc" style="text;html=1;align=center;verticalAlign=middle;resizable=0;points=[];autosize=1;strokeColor=none;fillColor=none;" vertex="1" parent="1">
          <mxGeometry x="334.99999999999955" y="1465" width="50" height="30" as="geometry" />
        </mxCell>
        <mxCell id="rYNILuXu-vlR-Zm8Mr-W-211" value="Nombre" style="text;html=1;align=center;verticalAlign=middle;resizable=0;points=[];autosize=1;strokeColor=none;fillColor=none;" vertex="1" parent="1">
          <mxGeometry x="220" y="1535" width="70" height="30" as="geometry" />
        </mxCell>
        <mxCell id="rYNILuXu-vlR-Zm8Mr-W-212" value="Codigo" style="text;html=1;align=center;verticalAlign=middle;resizable=0;points=[];autosize=1;strokeColor=none;fillColor=none;" vertex="1" parent="1">
          <mxGeometry x="13" y="1385" width="60" height="30" as="geometry" />
        </mxCell>
        <mxCell id="rYNILuXu-vlR-Zm8Mr-W-213" value="" style="endArrow=none;html=1;rounded=0;exitX=1;exitY=0.5;exitDx=0;exitDy=0;entryX=0.017;entryY=0.629;entryDx=0;entryDy=0;entryPerimeter=0;" edge="1" source="rYNILuXu-vlR-Zm8Mr-W-214" parent="1" target="rYNILuXu-vlR-Zm8Mr-W-192">
          <mxGeometry width="50" height="50" relative="1" as="geometry">
            <mxPoint x="111" y="1492" as="sourcePoint" />
            <mxPoint x="170" y="1448" as="targetPoint" />
          </mxGeometry>
        </mxCell>
        <mxCell id="rYNILuXu-vlR-Zm8Mr-W-214" value="" style="ellipse;whiteSpace=wrap;html=1;aspect=fixed;" vertex="1" parent="1">
          <mxGeometry x="75" y="1435" width="20" height="20" as="geometry" />
        </mxCell>
        <mxCell id="rYNILuXu-vlR-Zm8Mr-W-215" value="Nombre" style="text;html=1;align=center;verticalAlign=middle;resizable=0;points=[];autosize=1;strokeColor=none;fillColor=none;" vertex="1" parent="1">
          <mxGeometry x="5" y="1430" width="70" height="30" as="geometry" />
        </mxCell>
        <mxCell id="rYNILuXu-vlR-Zm8Mr-W-216" value="" style="endArrow=none;html=1;rounded=0;exitX=0.5;exitY=0;exitDx=0;exitDy=0;entryX=0.5;entryY=0;entryDx=0;entryDy=0;" edge="1" source="rYNILuXu-vlR-Zm8Mr-W-217" parent="1" target="rYNILuXu-vlR-Zm8Mr-W-154">
          <mxGeometry width="50" height="50" relative="1" as="geometry">
            <mxPoint x="375" y="774" as="sourcePoint" />
            <mxPoint x="380" y="820" as="targetPoint" />
          </mxGeometry>
        </mxCell>
        <mxCell id="rYNILuXu-vlR-Zm8Mr-W-217" value="" style="ellipse;whiteSpace=wrap;html=1;aspect=fixed;fillColor=#000000;" vertex="1" parent="1">
          <mxGeometry x="365" y="784" width="20" height="20" as="geometry" />
        </mxCell>
        <mxCell id="rYNILuXu-vlR-Zm8Mr-W-218" value="Nombre" style="text;html=1;align=center;verticalAlign=middle;resizable=0;points=[];autosize=1;strokeColor=none;fillColor=none;" vertex="1" parent="1">
          <mxGeometry x="330" y="747" width="70" height="30" as="geometry" />
        </mxCell>
        <mxCell id="rYNILuXu-vlR-Zm8Mr-W-219" value="" style="endArrow=none;html=1;rounded=0;exitX=0.5;exitY=0;exitDx=0;exitDy=0;entryX=1;entryY=0;entryDx=0;entryDy=0;" edge="1" source="rYNILuXu-vlR-Zm8Mr-W-220" parent="1" target="rYNILuXu-vlR-Zm8Mr-W-154">
          <mxGeometry width="50" height="50" relative="1" as="geometry">
            <mxPoint x="440" y="774" as="sourcePoint" />
            <mxPoint x="445" y="820" as="targetPoint" />
          </mxGeometry>
        </mxCell>
        <mxCell id="rYNILuXu-vlR-Zm8Mr-W-220" value="" style="ellipse;whiteSpace=wrap;html=1;aspect=fixed;" vertex="1" parent="1">
          <mxGeometry x="430" y="784" width="20" height="20" as="geometry" />
        </mxCell>
        <mxCell id="rYNILuXu-vlR-Zm8Mr-W-221" value="Desc" style="text;html=1;align=center;verticalAlign=middle;resizable=0;points=[];autosize=1;strokeColor=none;fillColor=none;" vertex="1" parent="1">
          <mxGeometry x="415" y="754" width="50" height="30" as="geometry" />
        </mxCell>
        <mxCell id="rYNILuXu-vlR-Zm8Mr-W-222" value="" style="endArrow=none;html=1;rounded=0;exitX=0.5;exitY=0;exitDx=0;exitDy=0;entryX=0;entryY=0;entryDx=0;entryDy=0;" edge="1" source="rYNILuXu-vlR-Zm8Mr-W-223" parent="1" target="rYNILuXu-vlR-Zm8Mr-W-154">
          <mxGeometry width="50" height="50" relative="1" as="geometry">
            <mxPoint x="290" y="764" as="sourcePoint" />
            <mxPoint x="295" y="810" as="targetPoint" />
          </mxGeometry>
        </mxCell>
        <mxCell id="rYNILuXu-vlR-Zm8Mr-W-223" value="" style="ellipse;whiteSpace=wrap;html=1;aspect=fixed;" vertex="1" parent="1">
          <mxGeometry x="280" y="784" width="20" height="20" as="geometry" />
        </mxCell>
        <mxCell id="rYNILuXu-vlR-Zm8Mr-W-224" value="Codigo" style="text;html=1;align=center;verticalAlign=middle;resizable=0;points=[];autosize=1;strokeColor=none;fillColor=none;" vertex="1" parent="1">
          <mxGeometry x="245" y="754" width="60" height="30" as="geometry" />
        </mxCell>
        <mxCell id="rYNILuXu-vlR-Zm8Mr-W-225" value="" style="endArrow=none;html=1;rounded=0;exitX=0.5;exitY=0;exitDx=0;exitDy=0;entryX=0.5;entryY=1;entryDx=0;entryDy=0;" edge="1" parent="1" source="rYNILuXu-vlR-Zm8Mr-W-53" target="rYNILuXu-vlR-Zm8Mr-W-227">
          <mxGeometry width="50" height="50" relative="1" as="geometry">
            <mxPoint x="30" y="740" as="sourcePoint" />
            <mxPoint x="-17" y="770" as="targetPoint" />
            <Array as="points">
              <mxPoint x="-17" y="790" />
            </Array>
          </mxGeometry>
        </mxCell>
        <mxCell id="rYNILuXu-vlR-Zm8Mr-W-227" value="posee" style="rhombus;whiteSpace=wrap;html=1;" vertex="1" parent="1">
          <mxGeometry x="-47.000000000000014" y="697" width="60" height="50" as="geometry" />
        </mxCell>
        <mxCell id="rYNILuXu-vlR-Zm8Mr-W-228" value="" style="endArrow=none;html=1;rounded=0;exitX=0.5;exitY=0;exitDx=0;exitDy=0;entryX=0.5;entryY=1;entryDx=0;entryDy=0;" edge="1" parent="1" source="rYNILuXu-vlR-Zm8Mr-W-227" target="rYNILuXu-vlR-Zm8Mr-W-229">
          <mxGeometry width="50" height="50" relative="1" as="geometry">
            <mxPoint x="-140" y="540" as="sourcePoint" />
            <mxPoint x="-17" y="640" as="targetPoint" />
          </mxGeometry>
        </mxCell>
        <mxCell id="rYNILuXu-vlR-Zm8Mr-W-229" value="Titulos" style="rounded=0;whiteSpace=wrap;html=1;" vertex="1" parent="1">
          <mxGeometry x="-77.00000000000045" y="550" width="120" height="70" as="geometry" />
        </mxCell>
        <mxCell id="rYNILuXu-vlR-Zm8Mr-W-230" value="" style="endArrow=none;html=1;rounded=0;entryX=0.25;entryY=0;entryDx=0;entryDy=0;exitX=1;exitY=1;exitDx=0;exitDy=0;" edge="1" source="rYNILuXu-vlR-Zm8Mr-W-231" target="rYNILuXu-vlR-Zm8Mr-W-229" parent="1">
          <mxGeometry width="50" height="50" relative="1" as="geometry">
            <mxPoint x="32.999999999999545" y="460" as="sourcePoint" />
            <mxPoint x="-17.000000000000455" y="520" as="targetPoint" />
          </mxGeometry>
        </mxCell>
        <mxCell id="rYNILuXu-vlR-Zm8Mr-W-231" value="" style="ellipse;whiteSpace=wrap;html=1;aspect=fixed;rotation=15;" vertex="1" parent="1">
          <mxGeometry x="-77.00000000000045" y="500" width="20" height="20" as="geometry" />
        </mxCell>
        <mxCell id="rYNILuXu-vlR-Zm8Mr-W-232" value="" style="endArrow=none;html=1;rounded=0;entryX=0;entryY=0.25;entryDx=0;entryDy=0;exitX=0.875;exitY=0.283;exitDx=0;exitDy=0;exitPerimeter=0;" edge="1" source="rYNILuXu-vlR-Zm8Mr-W-233" target="rYNILuXu-vlR-Zm8Mr-W-229" parent="1">
          <mxGeometry width="50" height="50" relative="1" as="geometry">
            <mxPoint x="-187.00000000000045" y="594" as="sourcePoint" />
            <mxPoint x="-117.00000000000045" y="594" as="targetPoint" />
          </mxGeometry>
        </mxCell>
        <mxCell id="rYNILuXu-vlR-Zm8Mr-W-233" value="" style="ellipse;whiteSpace=wrap;html=1;aspect=fixed;rotation=30;fillColor=#0A0A0A;" vertex="1" parent="1">
          <mxGeometry x="-137.00000000000045" y="550" width="20" height="20" as="geometry" />
        </mxCell>
        <mxCell id="rYNILuXu-vlR-Zm8Mr-W-234" value="Desc" style="text;html=1;align=center;verticalAlign=middle;resizable=0;points=[];autosize=1;strokeColor=none;fillColor=none;" vertex="1" parent="1">
          <mxGeometry x="-92.00000000000045" y="470" width="50" height="30" as="geometry" />
        </mxCell>
        <mxCell id="rYNILuXu-vlR-Zm8Mr-W-235" value="Nombre" style="text;html=1;align=center;verticalAlign=middle;resizable=0;points=[];autosize=1;strokeColor=none;fillColor=none;" vertex="1" parent="1">
          <mxGeometry x="-207" y="545" width="70" height="30" as="geometry" />
        </mxCell>
        <mxCell id="rYNILuXu-vlR-Zm8Mr-W-236" value="1,N" style="text;html=1;align=center;verticalAlign=middle;resizable=0;points=[];autosize=1;strokeColor=none;fillColor=none;" vertex="1" parent="1">
          <mxGeometry x="-20" y="798" width="40" height="30" as="geometry" />
        </mxCell>
        <mxCell id="rYNILuXu-vlR-Zm8Mr-W-237" value="1,1" style="text;html=1;align=center;verticalAlign=middle;resizable=0;points=[];autosize=1;strokeColor=none;fillColor=none;" vertex="1" parent="1">
          <mxGeometry x="-20" y="628" width="40" height="30" as="geometry" />
        </mxCell>
        <mxCell id="rYNILuXu-vlR-Zm8Mr-W-238" value="1,N" style="text;html=1;align=center;verticalAlign=middle;resizable=0;points=[];autosize=1;strokeColor=none;fillColor=none;" vertex="1" parent="1">
          <mxGeometry x="40" y="838" width="40" height="30" as="geometry" />
        </mxCell>
        <mxCell id="rYNILuXu-vlR-Zm8Mr-W-239" value="1,N" style="text;html=1;align=center;verticalAlign=middle;resizable=0;points=[];autosize=1;strokeColor=none;fillColor=none;" vertex="1" parent="1">
          <mxGeometry x="280" y="838" width="40" height="30" as="geometry" />
        </mxCell>
        <mxCell id="rYNILuXu-vlR-Zm8Mr-W-240" value="1,N" style="text;html=1;align=center;verticalAlign=middle;resizable=0;points=[];autosize=1;strokeColor=none;fillColor=none;" vertex="1" parent="1">
          <mxGeometry x="280" y="918" width="40" height="30" as="geometry" />
        </mxCell>
        <mxCell id="rYNILuXu-vlR-Zm8Mr-W-241" value="1,N" style="text;html=1;align=center;verticalAlign=middle;resizable=0;points=[];autosize=1;strokeColor=none;fillColor=none;" vertex="1" parent="1">
          <mxGeometry x="60" y="878" width="40" height="30" as="geometry" />
        </mxCell>
        <mxCell id="rYNILuXu-vlR-Zm8Mr-W-242" value="1,N" style="text;html=1;align=center;verticalAlign=middle;resizable=0;points=[];autosize=1;strokeColor=none;fillColor=none;" vertex="1" parent="1">
          <mxGeometry x="400" y="898" width="40" height="30" as="geometry" />
        </mxCell>
        <mxCell id="rYNILuXu-vlR-Zm8Mr-W-243" value="1,1" style="text;html=1;align=center;verticalAlign=middle;resizable=0;points=[];autosize=1;strokeColor=none;fillColor=none;" vertex="1" parent="1">
          <mxGeometry x="400" y="1210" width="40" height="30" as="geometry" />
        </mxCell>
        <mxCell id="rYNILuXu-vlR-Zm8Mr-W-244" value="1,1" style="text;html=1;align=center;verticalAlign=middle;resizable=0;points=[];autosize=1;strokeColor=none;fillColor=none;" vertex="1" parent="1">
          <mxGeometry x="410" y="1318" width="40" height="30" as="geometry" />
        </mxCell>
        <mxCell id="rYNILuXu-vlR-Zm8Mr-W-245" value="1,N" style="text;html=1;align=center;verticalAlign=middle;resizable=0;points=[];autosize=1;strokeColor=none;fillColor=none;" vertex="1" parent="1">
          <mxGeometry x="410" y="1518" width="40" height="30" as="geometry" />
        </mxCell>
        <mxCell id="rYNILuXu-vlR-Zm8Mr-W-246" value="1,N" style="text;html=1;align=center;verticalAlign=middle;resizable=0;points=[];autosize=1;strokeColor=none;fillColor=none;" vertex="1" parent="1">
          <mxGeometry x="170" y="1188" width="40" height="30" as="geometry" />
        </mxCell>
        <mxCell id="rYNILuXu-vlR-Zm8Mr-W-247" value="1,N" style="text;html=1;align=center;verticalAlign=middle;resizable=0;points=[];autosize=1;strokeColor=none;fillColor=none;" vertex="1" parent="1">
          <mxGeometry x="20" y="914" width="40" height="30" as="geometry" />
        </mxCell>
      </root>
    </mxGraphModel>
  </diagram>
</mxfile>
